<svg width="64" height="65" viewBox="0 0 64 65" fill="none" xmlns="http://www.w3.org/2000/svg">
<mask id="mask0_411_480" style="mask-type:alpha" maskUnits="userSpaceOnUse" x="0" y="0" width="64" height="65">
<rect y="0.451172" width="64" height="64" fill="#D9D9D9"/>
</mask>
<g mask="url(#mask0_411_480)">
<path d="M50.0201 46.6714L48.3637 44.174C47.5534 44.574 46.7209 44.8783 45.8662 45.0868C45.0115 45.2954 44.1261 45.3996 43.2098 45.3996C39.9483 45.3996 37.1902 44.2723 34.9355 42.0176C32.6808 39.7629 31.5535 37.0048 31.5535 33.7433C31.5535 30.5091 32.6808 27.7579 34.9355 25.4895C37.1902 23.2211 39.9261 22.0869 43.1431 22.0869C46.3602 22.0869 49.085 23.2254 51.3175 25.5023C53.55 27.7792 54.6662 30.5262 54.6662 33.7433C54.6662 35.4527 54.3192 37.0689 53.6251 38.592C52.9311 40.115 51.9482 41.4424 50.6764 42.574L52.3329 45.0714L50.0201 46.6714ZM9.33301 44.892L17.7638 22.5946H21.2355L29.7585 44.892H26.3945L24.3637 39.2612H14.7279L12.6561 44.892H9.33301ZM43.1431 42.5484C43.7825 42.5484 44.397 42.4774 44.9867 42.3356C45.5765 42.1937 46.1551 41.986 46.7227 41.7125L44.0765 37.7843L46.4303 36.2254L48.9944 40.0715C49.8184 39.2271 50.4517 38.263 50.8944 37.1792C51.3372 36.0954 51.5585 34.9502 51.5585 33.7433C51.5585 31.333 50.7517 29.263 49.138 27.533C47.5244 25.8031 45.5261 24.9382 43.1431 24.9382C40.7603 24.9382 38.7509 25.7989 37.1149 27.5202C35.479 29.2416 34.6611 31.3159 34.6611 33.7433C34.6611 36.1706 35.479 38.245 37.1149 39.9664C38.7509 41.6877 40.7603 42.5484 43.1431 42.5484ZM15.7227 36.4869H23.3535L19.6458 26.3997H19.3791L15.7227 36.4869Z" fill="#1C1B1F"/>
</g>
</svg>
