<svg width="64" height="65" viewBox="0 0 64 65" fill="none" xmlns="http://www.w3.org/2000/svg">
<mask id="mask0_411_486" style="mask-type:alpha" maskUnits="userSpaceOnUse" x="0" y="0" width="64" height="65">
<rect y="0.451172" width="64" height="64" fill="#D9D9D9"/>
</mask>
<g mask="url(#mask0_411_486)">
<path d="M29.4368 40.0418C28.7838 40.0418 28.2274 39.8119 27.7675 39.352C27.3077 38.8922 27.0778 38.3358 27.0778 37.6828V27.2213C27.0778 26.5683 27.3077 26.0119 27.7675 25.552C28.2274 25.0922 28.7838 24.8623 29.4368 24.8623H37.2316C37.8846 24.8623 38.441 25.0922 38.9009 25.552C39.3607 26.0119 39.5906 26.5683 39.5906 27.2213V37.6828C39.5906 38.3358 39.3607 38.8922 38.9009 39.352C38.441 39.8119 37.8846 40.0418 37.2316 40.0418H29.4368ZM30.2573 36.8623H36.4111V28.0418H30.2573V36.8623ZM10.7701 40.0418C10.1171 40.0418 9.56069 39.8119 9.10087 39.352C8.64104 38.8922 8.41113 38.3358 8.41113 37.6828V27.2213C8.41113 26.5683 8.64104 26.0119 9.10087 25.552C9.56069 25.0922 10.1171 24.8623 10.7701 24.8623H18.5649C19.218 24.8623 19.7744 25.0922 20.2342 25.552C20.694 26.0119 20.9239 26.5683 20.9239 27.2213V29.3751H17.7445V28.0418H11.5906V36.8623H17.7445V35.529H20.9239V37.6828C20.9239 38.3358 20.694 38.8922 20.2342 39.352C19.7744 39.8119 19.218 40.0418 18.5649 40.0418H10.7701ZM45.7445 48.0418V41.6315C45.7445 40.9785 45.9744 40.4221 46.4342 39.9623C46.894 39.5025 47.4504 39.2726 48.1035 39.2726H53.7445V36.0418H45.7445V32.8623H54.5649C55.218 32.8623 55.7744 33.0922 56.2342 33.552C56.694 34.0119 56.9239 34.5683 56.9239 35.2213V39.2726C56.9239 39.9255 56.694 40.4819 56.2342 40.9418C55.7744 41.4016 55.218 41.6315 54.5649 41.6315H48.9239V44.8623H56.9239V48.0418H45.7445Z" fill="#1C1B1F"/>
</g>
</svg>
