<svg width="65" height="65" viewBox="0 0 65 65" fill="none" xmlns="http://www.w3.org/2000/svg">
<mask id="mask0_411_462" style="mask-type:alpha" maskUnits="userSpaceOnUse" x="0" y="0" width="65" height="65">
<rect x="0.177734" y="0.451172" width="64" height="64" fill="#D9D9D9"/>
</mask>
<g mask="url(#mask0_411_462)">
<path d="M32.1777 57.7847C28.8478 57.7847 26.0153 56.6172 23.6803 54.2822C21.3452 51.9471 20.1777 49.1146 20.1777 45.7848C20.1777 43.754 20.6487 41.872 21.5906 40.1386C22.5325 38.4053 23.8393 36.9711 25.5111 35.8361V13.7848C25.5111 11.9216 26.1564 10.3447 27.4469 9.05403C28.7376 7.76345 30.3145 7.11816 32.1777 7.11816C34.0409 7.11816 35.6178 7.76345 36.9084 9.05403C38.199 10.3447 38.8443 11.9216 38.8443 13.7848V35.8361C40.516 36.9711 41.8229 38.4053 42.7647 40.1386C43.7066 41.872 44.1776 43.754 44.1776 45.7848C44.1776 49.1146 43.0101 51.9471 40.6751 54.2822C38.34 56.6172 35.5075 57.7847 32.1777 57.7847ZM29.511 30.2976H34.8443V26.9642H32.1777V24.6053H34.8443V18.9642H32.1777V16.6053H34.8443V13.7848C34.8443 13.0292 34.5888 12.3959 34.0777 11.8848C33.5666 11.3737 32.9332 11.1181 32.1777 11.1181C31.4221 11.1181 30.7888 11.3737 30.2777 11.8848C29.7666 12.3959 29.511 13.0292 29.511 13.7848V30.2976Z" fill="#1C1B1F"/>
</g>
</svg>
