<svg width="64" height="65" viewBox="0 0 64 65" fill="none" xmlns="http://www.w3.org/2000/svg">
<mask id="mask0_411_468" style="mask-type:alpha" maskUnits="userSpaceOnUse" x="0" y="0" width="64" height="65">
<rect y="0.451172" width="64" height="64" fill="#D9D9D9"/>
</mask>
<g mask="url(#mask0_411_468)">
<path d="M38.1507 47.2726C39.0758 47.2726 39.8631 46.9488 40.5127 46.3013C41.1622 45.6538 41.487 44.8675 41.487 43.9424C41.487 43.0173 41.1632 42.23 40.5157 41.5804C39.8682 40.9309 39.0818 40.6061 38.1567 40.6061C37.2317 40.6061 36.4444 40.9299 35.7948 41.5774C35.1452 42.225 34.8205 43.0113 34.8205 43.9364C34.8205 44.8614 35.1442 45.6487 35.7918 46.2983C36.4394 46.9479 37.2257 47.2726 38.1507 47.2726ZM25.1999 47.3701L41.5845 30.9856L38.7999 28.1754L22.3897 44.5856L25.1999 47.3701ZM25.8431 34.965C26.7682 34.965 27.5555 34.6413 28.2051 33.9937C28.8546 33.3461 29.1794 32.5598 29.1794 31.6348C29.1794 30.7097 28.8556 29.9224 28.2081 29.2728C27.5605 28.6233 26.7742 28.2985 25.8491 28.2985C24.9241 28.2985 24.1368 28.6223 23.4872 29.2698C22.8376 29.9173 22.5129 30.7037 22.5129 31.6288C22.5129 32.5538 22.8366 33.3411 23.4842 33.9907C24.1317 34.6403 24.918 34.965 25.8431 34.965ZM31.9952 57.7855C26.2856 57.7855 21.5256 55.824 17.7154 51.901C13.9051 47.9779 12 43.095 12 37.2522C12 33.1155 13.6556 28.5814 16.9667 23.6498C20.2778 18.7181 25.2889 13.3446 31.9999 7.5293C38.711 13.3446 43.7221 18.7181 47.0332 23.6498C50.3443 28.5814 51.9999 33.1155 51.9999 37.2522C51.9999 43.095 50.0932 47.9779 46.2798 51.901C42.4664 55.824 37.7048 57.7855 31.9952 57.7855ZM31.9999 53.7856C36.6222 53.7856 40.4444 52.2189 43.4666 49.0856C46.4888 45.9522 47.9999 42.0078 47.9999 37.2522C47.9999 34.0078 46.6555 30.3411 43.9666 26.2522C41.2777 22.1633 37.2888 17.6967 31.9999 12.8522C26.711 17.6967 22.7222 22.1633 20.0333 26.2522C17.3444 30.3411 15.9999 34.0078 15.9999 37.2522C15.9999 42.0078 17.511 45.9522 20.5333 49.0856C23.5555 52.2189 27.3777 53.7856 31.9999 53.7856Z" fill="#1C1B1F"/>
</g>
</svg>
