<svg width="32" height="32" viewBox="0 0 32 32" fill="none" xmlns="http://www.w3.org/2000/svg">
<path d="M15.0267 4.0001C13.5307 4.17452 12.1144 4.76768 10.9406 5.71136C9.76676 6.65504 8.88318 7.9109 8.39148 9.33448C7.89978 10.758 7.81991 12.2915 8.16108 13.7585C8.50225 15.2254 9.25058 16.5663 10.32 17.6268C10.8403 18.1293 11.2564 18.7295 11.5447 19.393C11.833 20.0564 11.9877 20.7702 12 21.4934C12.0066 21.4403 12.0066 21.3866 12 21.3334H20C19.9935 21.3866 19.9935 21.4403 20 21.4934C20.003 20.791 20.1446 20.096 20.4169 19.4485C20.6892 18.8009 21.0867 18.2136 21.5867 17.7201C22.807 16.5555 23.628 15.0349 23.9323 13.3757C24.2366 11.7165 24.0086 10.0036 23.281 8.48173C22.5533 6.95986 21.3632 5.70695 19.8807 4.90206C18.3983 4.09716 16.6993 3.78147 15.0267 4.0001Z" fill="#C7DAFF" stroke="black"/>
<path d="M19.9996 21.4931C20.0026 20.7906 20.1442 20.0956 20.4165 19.4481C20.6888 18.8006 21.0863 18.2132 21.5863 17.7197C22.7209 16.6129 23.5011 15.194 23.828 13.643C24.1549 12.092 24.0137 10.4789 23.4223 9.00829C22.8309 7.5377 21.816 6.27593 20.5063 5.38309C19.1967 4.49024 17.6513 4.00657 16.0663 3.99344C14.4813 3.98031 12.9281 4.43831 11.6038 5.30934C10.2795 6.18036 9.24385 7.42514 8.62817 8.88574C8.01249 10.3463 7.84457 11.9569 8.14572 13.5131C8.44686 15.0693 9.2035 16.5009 10.3196 17.6264C10.8415 18.1305 11.2585 18.7329 11.5468 19.3987C11.8352 20.0646 11.989 20.7809 11.9996 21.5064M19.9996 21.4931V25.3331C19.9996 25.6867 19.8591 26.0258 19.6091 26.2759C19.359 26.5259 19.0199 26.6664 18.6663 26.6664H13.333C12.9793 26.6664 12.6402 26.5259 12.3901 26.2759C12.1401 26.0258 11.9996 25.6867 11.9996 25.3331V21.5064M19.9996 21.4931C19.9931 21.4399 19.9931 21.3862 19.9996 21.3331H11.9996C12.0062 21.3906 12.0062 21.4488 11.9996 21.5064M17.333 26.6664H14.6663V27.9997H17.333V26.6664Z" stroke="black" stroke-linecap="round" stroke-linejoin="round"/>
</svg>
