<svg width="64" height="64" viewBox="0 0 64 64" fill="none" xmlns="http://www.w3.org/2000/svg">
<mask id="mask0_411_498" style="mask-type:alpha" maskUnits="userSpaceOnUse" x="0" y="0" width="64" height="64">
<rect width="64" height="64" fill="#D9D9D9"/>
</mask>
<g mask="url(#mask0_411_498)">
<path d="M18.6665 42.6674H45.3332C48.2665 42.6674 50.7776 41.623 52.8665 39.5341C54.9554 37.4452 55.9999 34.9341 55.9999 32.0007C55.9999 29.0674 54.9554 26.5563 52.8665 24.4674C50.7776 22.3785 48.2665 21.3341 45.3332 21.3341H18.6665C15.7332 21.3341 13.2221 22.3785 11.1332 24.4674C9.04431 26.5563 7.99987 29.0674 7.99987 32.0007C7.99987 34.9341 9.04431 37.4452 11.1332 39.5341C13.2221 41.623 15.7332 42.6674 18.6665 42.6674ZM25.9998 17.3341H37.9999V15.2317C37.9999 14.9923 37.923 14.7957 37.7691 14.6419C37.6153 14.488 37.4187 14.4111 37.1793 14.4111H26.8204C26.5811 14.4111 26.3845 14.488 26.2306 14.6419C26.0767 14.7957 25.9998 14.9923 25.9998 15.2317V17.3341ZM18.6665 53.3339V46.6673C14.5982 46.6673 11.1367 45.242 8.282 42.3913C5.42733 39.5407 4 36.0792 4 32.0068C4 27.9344 5.42591 24.4709 8.27773 21.6162C11.1296 18.7615 14.5925 17.3341 18.6665 17.3341H21.9999V15.2317C21.9999 13.8846 22.4666 12.7445 23.3999 11.8111C24.3332 10.8778 25.4734 10.4111 26.8204 10.4111H37.1793C38.5264 10.4111 39.6665 10.8778 40.5998 11.8111C41.5331 12.7445 41.9998 13.8846 41.9998 15.2317V17.3341H45.3332C49.4072 17.3341 52.8702 18.7595 55.722 21.6101C58.5739 24.4608 59.9998 27.9223 59.9998 31.9947C59.9998 36.0671 58.5739 39.5306 55.722 42.3853C52.8702 45.24 49.4072 46.6673 45.3332 46.6673V53.3339H41.3333V46.6673H22.6665V53.3339H18.6665Z" fill="#1C1B1F"/>
</g>
</svg>
