<svg width="64" height="65" viewBox="0 0 64 65" fill="none" xmlns="http://www.w3.org/2000/svg">
<mask id="mask0_411_492" style="mask-type:alpha" maskUnits="userSpaceOnUse" x="0" y="0" width="64" height="65">
<rect y="0.451172" width="64" height="64" fill="#D9D9D9"/>
</mask>
<g mask="url(#mask0_411_492)">
<path d="M12 37.2522C12 33.1155 13.6556 28.5814 16.9667 23.6498C20.2778 18.7181 25.2889 13.3446 31.9999 7.5293C36.9366 11.8028 40.94 15.8369 44.0101 19.6318C47.0802 23.4267 49.2751 27.013 50.5947 30.3908H46.2563C45.0632 27.8061 43.2854 25.0557 40.923 22.1394C38.5606 19.2232 35.5863 16.1275 31.9999 12.8522C26.711 17.6967 22.7222 22.1633 20.0333 26.2522C17.3444 30.3411 15.9999 34.0078 15.9999 37.2522C15.9999 42.0078 17.511 45.9522 20.5333 49.0856C23.5555 52.2189 27.3777 53.7856 31.9999 53.7856C32.0683 53.7856 32.1367 53.7813 32.2051 53.7728C32.2735 53.7642 32.3418 53.7599 32.4102 53.7599V57.7855H31.9999C26.2916 57.7855 21.5312 55.824 17.7187 51.901C13.9062 47.9779 12 43.095 12 37.2522ZM39.6717 59.8471L38.7179 57.6984C38.3794 56.9599 38.1324 56.1937 37.9769 55.3997C37.8213 54.6057 37.7435 53.801 37.7435 52.9856C37.7435 52.0252 37.8589 51.0756 38.0897 50.137C38.3205 49.1984 38.6533 48.2847 39.0883 47.3958C39.4362 46.6403 39.7435 45.8653 40.0102 45.0709C40.2769 44.2765 40.4102 43.4481 40.4102 42.5856C40.4102 41.8831 40.3324 41.2041 40.1769 40.5485C40.0213 39.8929 39.8017 39.2454 39.5179 38.606L38.7641 36.9907L41.6615 35.7241L42.6153 37.7651C42.9538 38.5035 43.2008 39.2822 43.3563 40.101C43.5119 40.9198 43.5897 41.748 43.5897 42.5856C43.5897 43.5457 43.4743 44.484 43.2435 45.4006C43.0127 46.317 42.6799 47.2197 42.2449 48.1086C41.897 48.8642 41.5897 49.6504 41.323 50.4672C41.0563 51.2839 40.923 52.1234 40.923 52.9856C40.923 53.6428 40.9897 54.2883 41.123 54.9221C41.2563 55.5559 41.4649 56.1702 41.7486 56.7651L42.5947 58.5804L39.6717 59.8471ZM47.6717 59.8471L46.7179 57.6984C46.3794 56.9599 46.1324 56.1937 45.9769 55.3997C45.8213 54.6057 45.7435 53.801 45.7435 52.9856C45.7435 52.0252 45.8589 51.0756 46.0897 50.137C46.3205 49.1984 46.6533 48.2847 47.0883 47.3958C47.4362 46.6403 47.7435 45.8653 48.0102 45.0709C48.2769 44.2765 48.4102 43.4481 48.4102 42.5856C48.4102 41.8831 48.3324 41.2041 48.1769 40.5485C48.0213 39.8929 47.8017 39.2454 47.5179 38.606L46.7641 36.9907L49.6615 35.7241L50.6153 37.7651C50.9538 38.548 51.2008 39.3377 51.3563 40.1343C51.5119 40.9309 51.5897 41.748 51.5897 42.5856C51.5897 43.5292 51.4828 44.4591 51.2691 45.3753C51.0554 46.2915 50.7349 47.177 50.3076 48.0317C49.9384 48.8147 49.6153 49.6207 49.3383 50.4497C49.0614 51.2787 48.923 52.124 48.923 52.9856C48.923 53.6428 48.9897 54.2883 49.123 54.9221C49.2563 55.5559 49.4649 56.1702 49.7486 56.7651L50.5947 58.5804L47.6717 59.8471ZM55.6717 59.8471L54.7179 57.6984C54.3794 56.9599 54.1324 56.1937 53.9769 55.3997C53.8213 54.6057 53.7435 53.801 53.7435 52.9856C53.7435 52.0252 53.8589 51.0756 54.0897 50.137C54.3205 49.1984 54.6533 48.2847 55.0883 47.3958C55.4362 46.6403 55.7435 45.8653 56.0102 45.0709C56.2769 44.2765 56.4102 43.4481 56.4102 42.5856C56.4102 41.8831 56.3324 41.2041 56.1769 40.5485C56.0213 39.8929 55.8017 39.2454 55.5179 38.606L54.7641 36.9907L57.6615 35.7241L58.6153 37.7651C58.9708 38.5035 59.2221 39.2822 59.3691 40.101C59.5162 40.9198 59.5897 41.748 59.5897 42.5856C59.5897 43.5324 59.4828 44.4684 59.2691 45.3937C59.0554 46.319 58.7349 47.212 58.3076 48.0727C57.9384 48.8618 57.6153 49.6625 57.3383 50.4748C57.0614 51.2871 56.923 52.124 56.923 52.9856C56.923 53.6428 56.9897 54.2883 57.123 54.9221C57.2563 55.5559 57.4649 56.1702 57.7486 56.7651L58.5947 58.5804L55.6717 59.8471Z" fill="#1C1B1F"/>
</g>
</svg>
